<!-- icon666.com - MILLIONS vector ICONS FREE --><svg id="Capa_1" enable-background="new 0 0 512 512" viewBox="0 0 512 512" xmlns="http://www.w3.org/2000/svg"><g><g><path d="m502 153.278h-192.585v-28.189h31.022c5.522 0 10-4.478 10-10v-48.085c0-5.522-4.478-10-10-10h-131.954c-5.522 0-10 4.478-10 10v38.085h-36.409c-5.522 0-10 4.478-10 10v38.189h-142.074c-5.522 0-10 4.478-10 10v42.451c0 5.522 4.478 10 10 10h19.915v229.267c0 5.522 4.478 10 10 10h42.348c5.522 0 10-4.478 10-10v-32.042h74.851c5.522 0 10-4.478 10-10s-4.478-10-10-10h-74.851v-177.016h238.175v177.016h-75.347c-5.522 0-10 4.478-10 10s4.478 10 10 10h75.347v32.042c0 5.522 4.478 10 10 10h135.71c5.522 0 10-4.478 10-10v-229.267h15.852c5.522 0 10-4.478 10-10v-42.451c0-5.522-4.478-10-10-10zm-283.517-76.274h111.954v28.085h-111.954zm-46.409 48.085h117.341v28.189h-117.341zm178.364 189.357h115.71v78.508h-115.71zm115.709-20h-115.71v-78.508h115.71zm-393.884 140.55h-22.348v-219.058h22.348zm393.884 0h-115.71v-22.042h115.71zm25.853-239.267h-472v-22.451h472z"></path><path d="m399.79 254.094h18.619c5.522 0 10-4.478 10-10s-4.478-10-10-10h-18.619c-5.522 0-10 4.478-10 10s4.478 10 10 10z"></path><path d="m418.409 332.233h-18.619c-5.522 0-10 4.478-10 10s4.478 10 10 10h18.619c5.522 0 10-4.478 10-10s-4.477-10-10-10z"></path><path d="m216.899 394.64c-7.353-4.907-17.237 1.898-15.297 10.509.912 4.046 4.333 7.167 8.44 7.715 4.353.581 8.658-1.856 10.439-5.861 1.939-4.363.437-9.734-3.582-12.363z"></path></g></g></svg>